<mxfile host="65bd71144e">
    <diagram id="2rA1NuXb-na6wDfWJjdb" name="Page-1">
        <mxGraphModel dx="2100" dy="3703" grid="1" gridSize="10" guides="1" tooltips="1" connect="1" arrows="1" fold="1" page="1" pageScale="1" pageWidth="1100" pageHeight="850" math="0" shadow="0">
            <root>
                <mxCell id="0"/>
                <mxCell id="1" parent="0"/>
                <mxCell id="54" style="edgeStyle=none;rounded=1;html=1;entryX=0;entryY=0.25;entryDx=0;entryDy=0;fontFamily=Verdana;fontSize=13;fontColor=#000000;" parent="1" source="2" target="44" edge="1">
                    <mxGeometry relative="1" as="geometry"/>
                </mxCell>
                <mxCell id="2" value="&lt;p style=&quot;font-size: 13px;&quot;&gt;&lt;span style=&quot;font-size: 13px; background-color: initial;&quot;&gt;&lt;font style=&quot;font-size: 13px;&quot;&gt;Land cost ($/acre)&lt;/font&gt;&lt;/span&gt;&lt;/p&gt;&lt;br style=&quot;font-size: 13px;&quot;&gt;" style="shape=ext;double=1;rounded=1;html=1;fillColor=#b1ddf0;strokeColor=#10739e;verticalAlign=top;spacingTop=-7;spacingBottom=12;spacingRight=2;spacingLeft=2;whiteSpace=wrap;fontFamily=Verdana;horizontal=1;fontSize=13;fontStyle=0" parent="1" vertex="1">
                    <mxGeometry x="40" y="-2520" width="160" height="40" as="geometry"/>
                </mxCell>
                <mxCell id="55" style="edgeStyle=none;rounded=1;html=1;fontFamily=Verdana;fontSize=13;fontColor=#000000;" parent="1" source="14" edge="1">
                    <mxGeometry relative="1" as="geometry">
                        <mxPoint x="280" y="-2420" as="targetPoint"/>
                    </mxGeometry>
                </mxCell>
                <mxCell id="14" value="&lt;p style=&quot;font-size: 13px;&quot;&gt;&lt;/p&gt;&lt;font style=&quot;font-size: 13px;&quot;&gt;&lt;span style=&quot;font-size: 13px;&quot;&gt;# of firm orders&lt;/span&gt;&lt;/font&gt;" style="shape=ext;double=1;rounded=1;html=1;fillColor=#b1ddf0;strokeColor=#10739e;verticalAlign=top;spacingTop=-7;spacingBottom=12;spacingRight=2;spacingLeft=2;whiteSpace=wrap;fontFamily=Verdana;horizontal=1;fontSize=13;fontStyle=0" parent="1" vertex="1">
                    <mxGeometry x="40" y="-2460" width="160" height="40" as="geometry"/>
                </mxCell>
                <mxCell id="56" style="edgeStyle=none;rounded=1;html=1;exitX=1;exitY=0.5;exitDx=0;exitDy=0;fontFamily=Verdana;fontSize=13;fontColor=#000000;" parent="1" source="15" edge="1">
                    <mxGeometry relative="1" as="geometry">
                        <mxPoint x="280" y="-2420" as="targetPoint"/>
                    </mxGeometry>
                </mxCell>
                <mxCell id="15" value="&lt;p style=&quot;font-size: 13px;&quot;&gt;&lt;/p&gt;&lt;font style=&quot;font-size: 13px;&quot;&gt;&lt;span style=&quot;font-size: 13px;&quot;&gt;Vol production LR&lt;/span&gt;&lt;/font&gt;" style="shape=ext;double=1;rounded=1;html=1;fillColor=#fff2cc;strokeColor=#d6b656;verticalAlign=middle;spacingTop=2;spacingBottom=12;spacingRight=2;spacingLeft=2;whiteSpace=wrap;fontFamily=Verdana;fontSize=13;fontStyle=0" parent="1" vertex="1">
                    <mxGeometry x="40" y="-2400" width="160" height="40" as="geometry"/>
                </mxCell>
                <mxCell id="57" style="edgeStyle=none;rounded=1;html=1;exitX=1;exitY=0.5;exitDx=0;exitDy=0;entryX=0;entryY=0.25;entryDx=0;entryDy=0;fontFamily=Verdana;fontSize=13;fontColor=#000000;" parent="1" source="16" target="42" edge="1">
                    <mxGeometry relative="1" as="geometry"/>
                </mxCell>
                <mxCell id="58" style="edgeStyle=none;rounded=1;html=1;exitX=1;exitY=0.5;exitDx=0;exitDy=0;entryX=0;entryY=0.25;entryDx=0;entryDy=0;fontFamily=Verdana;fontSize=13;fontColor=#000000;" parent="1" source="16" target="43" edge="1">
                    <mxGeometry relative="1" as="geometry"/>
                </mxCell>
                <mxCell id="16" value="&lt;p style=&quot;font-size: 13px;&quot;&gt;&lt;/p&gt;NAQ turbine?&lt;br style=&quot;font-size: 13px;&quot;&gt;NAQ containment?&lt;br style=&quot;font-size: 13px;&quot;&gt;" style="shape=ext;double=1;rounded=1;html=1;fillColor=#b1ddf0;strokeColor=#10739e;verticalAlign=middle;spacingTop=2;spacingBottom=12;spacingRight=2;spacingLeft=2;whiteSpace=wrap;fontFamily=Verdana;fontSize=13;fontStyle=0" parent="1" vertex="1">
                    <mxGeometry x="40" y="-2340" width="160" height="40" as="geometry"/>
                </mxCell>
                <mxCell id="59" style="edgeStyle=none;rounded=1;html=1;exitX=1;exitY=0.5;exitDx=0;exitDy=0;entryX=0;entryY=0.25;entryDx=0;entryDy=0;fontFamily=Verdana;fontSize=13;fontColor=#000000;" parent="1" source="17" target="43" edge="1">
                    <mxGeometry relative="1" as="geometry"/>
                </mxCell>
                <mxCell id="17" value="&lt;p style=&quot;font-size: 13px;&quot;&gt;&lt;/p&gt;FOAK delays (months)" style="shape=ext;double=1;rounded=1;html=1;fillColor=#fff2cc;strokeColor=#d6b656;verticalAlign=middle;spacingTop=2;spacingBottom=12;spacingRight=2;spacingLeft=2;whiteSpace=wrap;fontFamily=Verdana;fontSize=13;fontStyle=0" parent="1" vertex="1">
                    <mxGeometry x="40" y="-2280" width="160" height="40" as="geometry"/>
                </mxCell>
                <mxCell id="62" style="edgeStyle=none;rounded=1;html=1;exitX=1;exitY=0.5;exitDx=0;exitDy=0;fontFamily=Verdana;fontSize=13;fontColor=#000000;entryX=0;entryY=0.25;entryDx=0;entryDy=0;" parent="1" source="18" target="43" edge="1">
                    <mxGeometry relative="1" as="geometry">
                        <mxPoint x="420" y="-2200" as="targetPoint"/>
                    </mxGeometry>
                </mxCell>
                <mxCell id="18" value="&lt;p style=&quot;font-size: 13px;&quot;&gt;&lt;/p&gt;&lt;font style=&quot;font-size: 13px;&quot;&gt;&lt;span style=&quot;font-size: 13px;&quot;&gt;Task acceleration&lt;/span&gt;&lt;/font&gt;" style="shape=ext;double=1;rounded=1;html=1;fillColor=#fff2cc;strokeColor=#d6b656;verticalAlign=middle;spacingTop=2;spacingBottom=12;spacingRight=2;spacingLeft=2;whiteSpace=wrap;fontFamily=Verdana;fontSize=13;fontStyle=0" parent="1" vertex="1">
                    <mxGeometry x="40" y="-2220" width="160" height="40" as="geometry"/>
                </mxCell>
                <mxCell id="64" style="edgeStyle=none;rounded=1;html=1;exitX=1;exitY=0.5;exitDx=0;exitDy=0;entryX=0;entryY=0.5;entryDx=0;entryDy=0;fontFamily=Verdana;fontSize=13;fontColor=#000000;" parent="1" source="19" target="26" edge="1">
                    <mxGeometry relative="1" as="geometry"/>
                </mxCell>
                <mxCell id="19" value="&lt;p style=&quot;font-size: 13px;&quot;&gt;&lt;/p&gt;&lt;font style=&quot;font-size: 13px;&quot;&gt;&lt;span style=&quot;font-size: 13px;&quot;&gt;Procurement experience&lt;/span&gt;&lt;/font&gt;" style="shape=ext;double=1;rounded=1;html=1;fillColor=#b1ddf0;strokeColor=#10739e;verticalAlign=middle;spacingTop=2;spacingBottom=12;spacingRight=2;spacingLeft=2;whiteSpace=wrap;fontFamily=Verdana;fontSize=13;fontStyle=0" parent="1" vertex="1">
                    <mxGeometry x="40" y="-2160" width="160" height="40" as="geometry"/>
                </mxCell>
                <mxCell id="65" style="edgeStyle=none;rounded=1;html=1;exitX=1;exitY=0.5;exitDx=0;exitDy=0;entryX=0;entryY=0.5;entryDx=0;entryDy=0;fontFamily=Verdana;fontSize=13;fontColor=#000000;" parent="1" source="20" target="26" edge="1">
                    <mxGeometry relative="1" as="geometry"/>
                </mxCell>
                <mxCell id="20" value="&lt;p style=&quot;font-size: 13px;&quot;&gt;&lt;/p&gt;&lt;font style=&quot;font-size: 13px;&quot;&gt;&lt;span style=&quot;font-size: 13px;&quot;&gt;design maturity&lt;/span&gt;&lt;/font&gt;" style="shape=ext;double=1;rounded=1;html=1;fillColor=#b1ddf0;strokeColor=#10739e;verticalAlign=middle;spacingTop=2;spacingBottom=12;spacingRight=2;spacingLeft=2;whiteSpace=wrap;fontFamily=Verdana;fontSize=13;fontStyle=0" parent="1" vertex="1">
                    <mxGeometry x="40" y="-2100" width="160" height="40" as="geometry"/>
                </mxCell>
                <mxCell id="66" style="edgeStyle=none;rounded=1;html=1;exitX=1;exitY=0.5;exitDx=0;exitDy=0;entryX=0;entryY=0.5;entryDx=0;entryDy=0;fontFamily=Verdana;fontSize=13;fontColor=#000000;" parent="1" source="21" target="27" edge="1">
                    <mxGeometry relative="1" as="geometry"/>
                </mxCell>
                <mxCell id="21" value="&lt;p style=&quot;font-size: 13px;&quot;&gt;&lt;/p&gt;&lt;font style=&quot;font-size: 13px;&quot;&gt;&lt;span style=&quot;font-size: 13px;&quot;&gt;Eng &amp;amp; Construction experience&lt;/span&gt;&lt;/font&gt;" style="shape=ext;double=1;rounded=1;html=1;fillColor=#b1ddf0;strokeColor=#10739e;verticalAlign=middle;spacingTop=2;spacingBottom=12;spacingRight=2;spacingLeft=2;whiteSpace=wrap;fontFamily=Verdana;fontSize=13;fontStyle=0" parent="1" vertex="1">
                    <mxGeometry x="40" y="-2040" width="160" height="40" as="geometry"/>
                </mxCell>
                <mxCell id="67" style="edgeStyle=none;rounded=1;html=1;exitX=1;exitY=0.5;exitDx=0;exitDy=0;entryX=0;entryY=0.25;entryDx=0;entryDy=0;fontFamily=Verdana;fontSize=13;fontColor=#000000;" parent="1" source="22" target="52" edge="1">
                    <mxGeometry relative="1" as="geometry"/>
                </mxCell>
                <mxCell id="22" value="&lt;p style=&quot;font-size: 13px;&quot;&gt;&lt;/p&gt;&lt;font style=&quot;font-size: 13px;&quot;&gt;&lt;span style=&quot;font-size: 13px;&quot;&gt;Design completion&lt;/span&gt;&lt;/font&gt;" style="shape=ext;double=1;rounded=1;html=1;fillColor=#b1ddf0;strokeColor=#10739e;verticalAlign=middle;spacingTop=2;spacingBottom=12;spacingRight=2;spacingLeft=2;whiteSpace=wrap;fontFamily=Verdana;fontSize=13;fontStyle=0" parent="1" vertex="1">
                    <mxGeometry x="40" y="-1980" width="160" height="40" as="geometry"/>
                </mxCell>
                <mxCell id="68" style="edgeStyle=none;rounded=1;html=1;entryX=0;entryY=0.25;entryDx=0;entryDy=0;fontFamily=Verdana;fontSize=13;fontColor=#000000;" parent="1" source="23" target="52" edge="1">
                    <mxGeometry relative="1" as="geometry"/>
                </mxCell>
                <mxCell id="23" value="&lt;p style=&quot;font-size: 13px;&quot;&gt;&lt;/p&gt;&lt;font style=&quot;font-size: 13px;&quot;&gt;&lt;span style=&quot;font-size: 13px;&quot;&gt;Baseline construction duration&lt;/span&gt;&lt;/font&gt;" style="shape=ext;double=1;rounded=1;html=1;fillColor=#b1ddf0;strokeColor=#10739e;verticalAlign=middle;spacingTop=2;spacingBottom=12;spacingRight=2;spacingLeft=2;whiteSpace=wrap;fontFamily=Verdana;fontSize=13;fontStyle=0" parent="1" vertex="1">
                    <mxGeometry x="40" y="-1920" width="160" height="40" as="geometry"/>
                </mxCell>
                <mxCell id="110" style="edgeStyle=none;rounded=1;html=1;entryX=-0.022;entryY=0.629;entryDx=0;entryDy=0;fontFamily=Verdana;fontSize=13;fontColor=#000000;startArrow=none;startFill=0;endArrow=classic;endFill=1;entryPerimeter=0;" parent="1" source="24" target="51" edge="1">
                    <mxGeometry relative="1" as="geometry"/>
                </mxCell>
                <mxCell id="24" value="&lt;p style=&quot;font-size: 13px;&quot;&gt;&lt;/p&gt;&lt;font style=&quot;font-size: 13px;&quot;&gt;&lt;span style=&quot;font-size: 13px;&quot;&gt;Interest rate&lt;/span&gt;&lt;/font&gt;" style="shape=ext;double=1;rounded=1;html=1;fillColor=#b1ddf0;strokeColor=#10739e;verticalAlign=middle;spacingTop=2;spacingBottom=12;spacingRight=2;spacingLeft=2;whiteSpace=wrap;fontFamily=Verdana;fontSize=13;fontStyle=0" parent="1" vertex="1">
                    <mxGeometry x="40" y="-1860" width="160" height="40" as="geometry"/>
                </mxCell>
                <mxCell id="120" style="edgeStyle=none;rounded=1;html=1;fontFamily=Verdana;fontSize=13;fontColor=#000000;startArrow=none;startFill=0;endArrow=none;endFill=0;" parent="1" source="25" edge="1">
                    <mxGeometry relative="1" as="geometry">
                        <mxPoint x="980" y="-1780" as="targetPoint"/>
                    </mxGeometry>
                </mxCell>
                <mxCell id="25" value="&lt;p style=&quot;font-size: 13px;&quot;&gt;&lt;/p&gt;&lt;font style=&quot;font-size: 13px;&quot;&gt;&lt;span style=&quot;font-size: 13px;&quot;&gt;ITC&lt;/span&gt;&lt;/font&gt;" style="shape=ext;double=1;rounded=1;html=1;fillColor=#b1ddf0;strokeColor=#10739e;verticalAlign=middle;spacingTop=2;spacingBottom=12;spacingRight=2;spacingLeft=2;whiteSpace=wrap;fontFamily=Verdana;fontSize=13;fontStyle=0" parent="1" vertex="1">
                    <mxGeometry x="40" y="-1800" width="160" height="40" as="geometry"/>
                </mxCell>
                <mxCell id="69" style="edgeStyle=none;rounded=1;html=1;exitX=1;exitY=0.5;exitDx=0;exitDy=0;entryX=0;entryY=0.25;entryDx=0;entryDy=0;fontFamily=Verdana;fontSize=13;fontColor=#000000;" parent="1" source="26" target="43" edge="1">
                    <mxGeometry relative="1" as="geometry"/>
                </mxCell>
                <mxCell id="26" value="&lt;p style=&quot;font-size: 13px;&quot;&gt;&lt;/p&gt;Supply chain delay factor" style="shape=ext;double=1;rounded=1;html=1;fillColor=#f8cecc;strokeColor=#b85450;verticalAlign=middle;spacingTop=2;spacingBottom=12;spacingRight=2;spacingLeft=2;whiteSpace=wrap;fontFamily=Verdana;fontSize=13;fontStyle=0" parent="1" vertex="1">
                    <mxGeometry x="240" y="-2160" width="160" height="40" as="geometry"/>
                </mxCell>
                <mxCell id="74" style="edgeStyle=none;rounded=1;html=1;exitX=1;exitY=0;exitDx=0;exitDy=0;entryX=0;entryY=0.25;entryDx=0;entryDy=0;fontFamily=Verdana;fontSize=13;fontColor=#000000;" parent="1" source="27" target="43" edge="1">
                    <mxGeometry relative="1" as="geometry"/>
                </mxCell>
                <mxCell id="27" value="&lt;p style=&quot;font-size: 13px;&quot;&gt;&lt;/p&gt;labor productivity" style="shape=ext;double=1;rounded=1;html=1;fillColor=#f8cecc;strokeColor=#b85450;verticalAlign=middle;spacingTop=2;spacingBottom=12;spacingRight=2;spacingLeft=2;whiteSpace=wrap;fontFamily=Verdana;fontSize=13;fontStyle=0" parent="1" vertex="1">
                    <mxGeometry x="240" y="-2040" width="160" height="40" as="geometry"/>
                </mxCell>
                <mxCell id="83" style="edgeStyle=none;rounded=1;html=1;entryX=0;entryY=0.5;entryDx=0;entryDy=0;fontFamily=Verdana;fontSize=13;fontColor=#000000;" parent="1" source="41" target="47" edge="1">
                    <mxGeometry relative="1" as="geometry"/>
                </mxCell>
                <mxCell id="123" style="edgeStyle=none;rounded=1;html=1;fontFamily=Verdana;fontSize=13;fontColor=#000000;startArrow=classic;startFill=1;endArrow=none;endFill=0;" parent="1" source="41" edge="1">
                    <mxGeometry relative="1" as="geometry">
                        <mxPoint x="280" y="-2420" as="targetPoint"/>
                    </mxGeometry>
                </mxCell>
                <mxCell id="41" value="20. Capitalized direct cost (Factory)&amp;nbsp;&amp;nbsp;" style="shape=ext;double=1;rounded=0;whiteSpace=wrap;html=1;fontFamily=Verdana;fontSize=13;fillColor=#cdeb8b;strokeColor=#36393d;fontStyle=0" parent="1" vertex="1">
                    <mxGeometry x="440" y="-2460" width="160" height="70" as="geometry"/>
                </mxCell>
                <mxCell id="81" style="edgeStyle=none;rounded=1;html=1;exitX=1;exitY=0.5;exitDx=0;exitDy=0;entryX=0;entryY=0.5;entryDx=0;entryDy=0;fontFamily=Verdana;fontSize=13;fontColor=#000000;" parent="1" source="42" target="47" edge="1">
                    <mxGeometry relative="1" as="geometry"/>
                </mxCell>
                <mxCell id="42" value="20. Capitalized direct cost (Material)&amp;nbsp;" style="shape=ext;double=1;rounded=0;whiteSpace=wrap;html=1;fontFamily=Verdana;fontSize=13;fillColor=#cdeb8b;strokeColor=#36393d;fontStyle=0" parent="1" vertex="1">
                    <mxGeometry x="440" y="-2340" width="160" height="70" as="geometry"/>
                </mxCell>
                <mxCell id="75" style="edgeStyle=none;rounded=1;html=1;exitX=0.5;exitY=1;exitDx=0;exitDy=0;entryX=0.5;entryY=0;entryDx=0;entryDy=0;fontFamily=Verdana;fontSize=13;fontColor=#000000;" parent="1" source="43" target="52" edge="1">
                    <mxGeometry relative="1" as="geometry"/>
                </mxCell>
                <mxCell id="82" style="edgeStyle=none;rounded=1;html=1;entryX=0;entryY=0.5;entryDx=0;entryDy=0;fontFamily=Verdana;fontSize=13;fontColor=#000000;" parent="1" source="43" target="47" edge="1">
                    <mxGeometry relative="1" as="geometry"/>
                </mxCell>
                <mxCell id="43" value="20. Capitalized direct cost (Labor)&amp;nbsp;" style="shape=ext;double=1;rounded=0;whiteSpace=wrap;html=1;fontFamily=Verdana;fontSize=13;fillColor=#cdeb8b;strokeColor=#36393d;fontStyle=0" parent="1" vertex="1">
                    <mxGeometry x="440" y="-2220" width="160" height="70" as="geometry"/>
                </mxCell>
                <mxCell id="94" style="edgeStyle=none;rounded=1;html=1;fontFamily=Verdana;fontSize=13;fontColor=#000000;endArrow=none;endFill=0;" parent="1" source="44" edge="1">
                    <mxGeometry relative="1" as="geometry">
                        <mxPoint x="1080" y="-2480" as="targetPoint"/>
                    </mxGeometry>
                </mxCell>
                <mxCell id="117" value="" style="edgeStyle=none;rounded=1;html=1;fontFamily=Verdana;fontSize=13;fontColor=#000000;startArrow=none;startFill=0;endArrow=classic;endFill=1;" parent="1" source="44" target="47" edge="1">
                    <mxGeometry relative="1" as="geometry"/>
                </mxCell>
                <mxCell id="44" value="10. Capitalized Pre-Construction Costs" style="shape=ext;double=1;rounded=0;whiteSpace=wrap;html=1;fontFamily=Verdana;fontSize=13;fillColor=#cdeb8b;strokeColor=#FFFF00;shadow=1;glass=0;fontStyle=0" parent="1" vertex="1">
                    <mxGeometry x="640" y="-2520" width="180" height="70" as="geometry"/>
                </mxCell>
                <mxCell id="88" style="edgeStyle=none;rounded=1;html=1;entryX=0;entryY=0.5;entryDx=0;entryDy=0;fontFamily=Verdana;fontSize=13;fontColor=#000000;" parent="1" source="47" target="87" edge="1">
                    <mxGeometry relative="1" as="geometry"/>
                </mxCell>
                <mxCell id="47" value="20. Capitalized direct costs" style="shape=ext;double=1;rounded=0;whiteSpace=wrap;html=1;fontFamily=Verdana;fontSize=13;fillColor=#cdeb8b;strokeColor=#FFFF00;shadow=1;glass=0;fontStyle=0" parent="1" vertex="1">
                    <mxGeometry x="640" y="-2340" width="180" height="70" as="geometry"/>
                </mxCell>
                <mxCell id="89" style="edgeStyle=none;rounded=1;html=1;entryX=0;entryY=0.5;entryDx=0;entryDy=0;fontFamily=Verdana;fontSize=13;fontColor=#000000;" parent="1" source="48" target="87" edge="1">
                    <mxGeometry relative="1" as="geometry"/>
                </mxCell>
                <mxCell id="48" value="30. Capitalized indirect service cost" style="shape=ext;double=1;rounded=0;whiteSpace=wrap;html=1;fontFamily=Verdana;fontSize=13;fillColor=#cdeb8b;strokeColor=#FFFF00;shadow=1;glass=0;fontStyle=0" parent="1" vertex="1">
                    <mxGeometry x="640" y="-2220" width="180" height="70" as="geometry"/>
                </mxCell>
                <mxCell id="106" style="edgeStyle=none;rounded=1;html=1;entryX=0;entryY=1;entryDx=0;entryDy=0;fontFamily=Verdana;fontSize=13;fontColor=#000000;startArrow=none;startFill=0;endArrow=classic;endFill=1;" parent="1" source="50" target="92" edge="1">
                    <mxGeometry relative="1" as="geometry"/>
                </mxCell>
                <mxCell id="50" value="40. Capitalized owner's cost" style="shape=ext;double=1;rounded=0;whiteSpace=wrap;html=1;fontFamily=Verdana;fontSize=13;fillColor=#cdeb8b;strokeColor=#FFFF00;shadow=1;glass=0;fontStyle=0" parent="1" vertex="1">
                    <mxGeometry x="640" y="-2120" width="180" height="70" as="geometry"/>
                </mxCell>
                <mxCell id="115" style="edgeStyle=none;rounded=1;html=1;entryX=0;entryY=1;entryDx=0;entryDy=0;fontFamily=Verdana;fontSize=13;fontColor=#000000;startArrow=none;startFill=0;endArrow=classic;endFill=1;" parent="1" source="51" target="113" edge="1">
                    <mxGeometry relative="1" as="geometry"/>
                </mxCell>
                <mxCell id="51" value="60. Capitalized financial's cost" style="shape=ext;double=1;rounded=0;whiteSpace=wrap;html=1;fontFamily=Verdana;fontSize=13;fillColor=#cdeb8b;strokeColor=#FFFF00;shadow=1;glass=0;fontStyle=0" parent="1" vertex="1">
                    <mxGeometry x="640" y="-1890" width="180" height="80" as="geometry"/>
                </mxCell>
                <mxCell id="76" style="edgeStyle=none;rounded=1;html=1;exitX=0.5;exitY=0;exitDx=0;exitDy=0;entryX=0;entryY=0.5;entryDx=0;entryDy=0;fontFamily=Verdana;fontSize=13;fontColor=#000000;" parent="1" source="52" target="48" edge="1">
                    <mxGeometry relative="1" as="geometry"/>
                </mxCell>
                <mxCell id="77" style="edgeStyle=none;rounded=1;html=1;exitX=1;exitY=0.5;exitDx=0;exitDy=0;entryX=0;entryY=0.5;entryDx=0;entryDy=0;fontFamily=Verdana;fontSize=13;fontColor=#000000;" parent="1" source="52" target="51" edge="1">
                    <mxGeometry relative="1" as="geometry"/>
                </mxCell>
                <mxCell id="52" value="&lt;font color=&quot;#000000&quot;&gt;Actual construction duration&lt;/font&gt;" style="shape=ext;double=1;rounded=0;whiteSpace=wrap;html=1;fontFamily=Verdana;fontSize=13;fillColor=#e3c800;strokeColor=#B09500;fontColor=#000000;fontStyle=0" parent="1" vertex="1">
                    <mxGeometry x="440" y="-1980" width="160" height="70" as="geometry"/>
                </mxCell>
                <mxCell id="107" style="edgeStyle=none;rounded=1;html=1;fontFamily=Verdana;fontSize=13;fontColor=#000000;startArrow=none;startFill=0;endArrow=classic;endFill=1;" parent="1" source="84" edge="1">
                    <mxGeometry relative="1" as="geometry">
                        <mxPoint x="1080" y="-2425" as="targetPoint"/>
                    </mxGeometry>
                </mxCell>
                <mxCell id="84" value="50 Capitalized supplementary cost" style="shape=ext;double=1;rounded=0;whiteSpace=wrap;html=1;fontFamily=Verdana;fontSize=13;fillColor=#cdeb8b;strokeColor=#FFFF00;shadow=1;glass=0;fontStyle=0" parent="1" vertex="1">
                    <mxGeometry x="870" y="-2460" width="180" height="70" as="geometry"/>
                </mxCell>
                <mxCell id="90" style="edgeStyle=none;rounded=1;html=1;exitX=0.5;exitY=0;exitDx=0;exitDy=0;entryX=0.5;entryY=1;entryDx=0;entryDy=0;fontFamily=Verdana;fontSize=13;fontColor=#000000;" parent="1" source="87" target="84" edge="1">
                    <mxGeometry relative="1" as="geometry"/>
                </mxCell>
                <mxCell id="93" style="edgeStyle=none;rounded=1;html=1;exitX=0.5;exitY=1;exitDx=0;exitDy=0;entryX=0.5;entryY=0;entryDx=0;entryDy=0;fontFamily=Verdana;fontSize=13;fontColor=#000000;" parent="1" source="87" target="92" edge="1">
                    <mxGeometry relative="1" as="geometry"/>
                </mxCell>
                <mxCell id="87" value="20 + 30 (direct and indirect cost)" style="shape=ext;double=1;rounded=1;whiteSpace=wrap;html=1;fontFamily=Verdana;fontSize=13;fillColor=#cdeb8b;strokeColor=#FF0000;shadow=0;glass=0;fontStyle=0;gradientColor=none;labelBorderColor=none;" parent="1" vertex="1">
                    <mxGeometry x="870" y="-2340" width="180" height="70" as="geometry"/>
                </mxCell>
                <mxCell id="100" style="edgeStyle=none;rounded=1;html=1;fontFamily=Verdana;fontSize=13;fontColor=#000000;endArrow=none;endFill=0;startArrow=classic;startFill=1;" parent="1" edge="1">
                    <mxGeometry relative="1" as="geometry">
                        <mxPoint x="1080" y="-2189" as="targetPoint"/>
                        <mxPoint x="1050" y="-2189" as="sourcePoint"/>
                    </mxGeometry>
                </mxCell>
                <mxCell id="111" style="edgeStyle=none;rounded=1;html=1;entryX=0.5;entryY=0;entryDx=0;entryDy=0;fontFamily=Verdana;fontSize=13;fontColor=#000000;startArrow=none;startFill=0;endArrow=classic;endFill=1;" parent="1" source="92" target="51" edge="1">
                    <mxGeometry relative="1" as="geometry"/>
                </mxCell>
                <mxCell id="114" style="edgeStyle=none;rounded=1;html=1;entryX=0.431;entryY=0.009;entryDx=0;entryDy=0;entryPerimeter=0;fontFamily=Verdana;fontSize=13;fontColor=#000000;startArrow=none;startFill=0;endArrow=classic;endFill=1;" parent="1" source="92" target="113" edge="1">
                    <mxGeometry relative="1" as="geometry"/>
                </mxCell>
                <mxCell id="92" value="Total Overnight Cost (Accounts 10 - 50)" style="shape=ext;double=1;rounded=1;whiteSpace=wrap;html=1;fontFamily=Verdana;fontSize=13;fillColor=#cdeb8b;strokeColor=#FF0000;shadow=0;glass=0;fontStyle=0;gradientColor=none;labelBorderColor=none;" parent="1" vertex="1">
                    <mxGeometry x="870" y="-2220" width="180" height="70" as="geometry"/>
                </mxCell>
                <mxCell id="97" value="" style="endArrow=none;html=1;rounded=1;fontFamily=Verdana;fontSize=13;fontColor=#000000;startArrow=none;startFill=0;" parent="1" edge="1">
                    <mxGeometry width="50" height="50" relative="1" as="geometry">
                        <mxPoint x="1080" y="-2190" as="sourcePoint"/>
                        <mxPoint x="1080" y="-2480" as="targetPoint"/>
                    </mxGeometry>
                </mxCell>
                <mxCell id="119" style="edgeStyle=none;rounded=1;html=1;entryX=0.438;entryY=-0.019;entryDx=0;entryDy=0;entryPerimeter=0;fontFamily=Verdana;fontSize=13;fontColor=#000000;startArrow=none;startFill=0;endArrow=classic;endFill=1;" parent="1" source="113" target="116" edge="1">
                    <mxGeometry relative="1" as="geometry"/>
                </mxCell>
                <mxCell id="113" value="Total Investment Costs (Accounts 10 - 60)" style="shape=ext;double=1;rounded=1;whiteSpace=wrap;html=1;fontFamily=Verdana;fontSize=13;fillColor=#cdeb8b;strokeColor=#FF0000;shadow=0;glass=0;fontStyle=0;gradientColor=none;labelBorderColor=none;" parent="1" vertex="1">
                    <mxGeometry x="880" y="-2000" width="180" height="70" as="geometry"/>
                </mxCell>
                <mxCell id="121" style="edgeStyle=none;rounded=1;html=1;fontFamily=Verdana;fontSize=13;fontColor=#000000;startArrow=classic;startFill=1;endArrow=none;endFill=0;" parent="1" source="116" edge="1">
                    <mxGeometry relative="1" as="geometry">
                        <mxPoint x="980" y="-1780" as="targetPoint"/>
                    </mxGeometry>
                </mxCell>
                <mxCell id="116" value="ITC-Reduced Total Investment Costs (Accounts 10 - 60)" style="shape=ext;double=1;rounded=1;whiteSpace=wrap;html=1;fontFamily=Verdana;fontSize=13;fillColor=#cdeb8b;strokeColor=#FF0000;shadow=0;glass=0;fontStyle=0;gradientColor=none;labelBorderColor=none;" parent="1" vertex="1">
                    <mxGeometry x="890" y="-1880" width="180" height="70" as="geometry"/>
                </mxCell>
            </root>
        </mxGraphModel>
    </diagram>
</mxfile>